<?xml version="1.0" encoding="UTF-8"?>
<svg width="403px" height="67px" viewBox="0 0 403 67" version="1.1" xmlns="http://www.w3.org/2000/svg" xmlns:xlink="http://www.w3.org/1999/xlink">
    <!-- Generator: Sketch 52.6 (67491) - http://www.bohemiancoding.com/sketch -->
    <title>full_logo</title>
    <desc>Created with Sketch.</desc>
    <defs>
        <polygon id="path-1" points="0.779901836 0.634545508 46.1072 0.634545508 46.1072 56 0.779901836 56"></polygon>
        <polygon id="path-3" points="0.150230755 0.492 37.1087667 0.492 37.1087667 9.13853904 0.150230755 9.13853904"></polygon>
    </defs>
    <g id="Page-1" stroke="none" stroke-width="1" fill="none" fill-rule="evenodd">
        <g id="full_logo" transform="translate(0.000000, -1.000000)">
            <path d="M5.1058,26.051 C6.0098,26.008 7.3138,25.91 8.9138,25.74 C12.1168,25.42 16.4858,24.709 21.2958,24.257 C26.0928,23.804 31.4088,23.819 36.1798,25.03 C37.3688,25.329 38.5228,25.685 39.6128,26.122 C40.7068,26.543 41.7408,27.034 42.6928,27.571 C44.5968,28.642 46.1868,29.904 47.4138,31.11 C49.7078,33.386 51.0018,35.569 51.8108,37.285 C51.9918,37.725 52.1768,38.126 52.3198,38.506 C52.4548,38.89 52.5778,39.242 52.6908,39.566 C52.8618,40.226 53.0418,40.764 53.1168,41.218 C53.3308,42.117 53.3818,42.633 53.4758,42.918 C53.5598,43.203 53.6328,43.261 53.7068,43.262 C53.7798,43.263 53.8468,43.187 53.8908,42.862 C53.9318,42.537 53.9768,41.962 53.8488,40.974 C53.7108,39.997 53.4568,38.577 52.6418,36.737 C51.8248,34.912 50.4768,32.635 48.1218,30.313 C46.8258,29.046 45.1488,27.729 43.1388,26.618 C42.1348,26.063 41.0558,25.562 39.9158,25.135 C38.7788,24.693 37.5808,24.338 36.3518,24.044 C31.4168,22.854 26.0098,22.931 21.1858,23.486 C16.3508,24.04 12.0148,24.866 8.8428,25.314 C7.2578,25.549 5.9688,25.714 5.0768,25.828 C4.1838,25.938 3.6888,26.009 3.6928,26.049 C3.6968,26.086 4.2008,26.09 5.1058,26.051" id="Fill-1" fill="#605A5A"></path>
            <path d="M50.8558,42.6765 C50.9108,42.6295 50.9418,42.5535 50.8858,42.3875 C50.8298,42.2215 50.6958,41.9525 50.3578,41.5815 C50.0198,41.2185 49.4828,40.7235 48.5988,40.2945 C47.7198,39.8665 46.5018,39.5015 44.9468,39.4575 C44.0928,39.4345 43.0988,39.5105 42.0398,39.7335 C40.9838,39.9525 39.8858,40.3115 38.7698,40.7115 C36.5458,41.5115 34.2118,42.4965 31.9518,42.7035 C30.8258,42.8145 29.7258,42.7095 28.7528,42.4895 C27.7808,42.2515 26.9408,41.8705 26.2988,41.4435 C25.0028,40.5785 24.5328,39.6355 24.4498,39.6985 C24.4218,39.7155 24.5148,39.9545 24.7528,40.3555 C25.0008,40.7465 25.4268,41.2835 26.0818,41.7955 C26.7338,42.3075 27.6128,42.7755 28.6398,43.0855 C29.6668,43.3785 30.8348,43.5445 32.0428,43.4775 C34.4758,43.3515 36.9038,42.4045 39.1168,41.6735 C40.2268,41.3075 41.2948,40.9855 42.2858,40.7975 C43.2698,40.6075 44.1878,40.5495 44.9658,40.5735 C46.4258,40.6255 47.5148,40.9445 48.3018,41.2745 C49.0908,41.6155 49.5818,41.9745 49.9228,42.2235 C50.2708,42.4685 50.4548,42.6295 50.5938,42.6865 C50.7298,42.7475 50.7998,42.7245 50.8558,42.6765" id="Fill-3" fill="#605A5A"></path>
            <path d="M17.1727,39.3616 C18.2057,39.7476 19.5067,39.9396 20.9257,39.8916 C22.3437,39.8376 23.8777,39.5356 25.3947,38.9776 C28.4207,37.8656 31.3607,35.9746 34.3397,34.9976 C35.8257,34.5026 37.3027,34.2646 38.6797,34.2876 C40.0557,34.2986 41.3127,34.5316 42.3547,34.8316 C44.3127,35.3936 45.7077,36.2046 46.7247,36.8736 C47.7337,37.5656 48.3927,38.1236 48.8387,38.5256 C49.7277,39.3336 49.8987,39.3916 50.0167,39.2856 C50.0717,39.2376 50.0927,39.1516 50.0027,38.9436 C49.9057,38.7426 49.7277,38.3896 49.2937,37.8986 C48.8807,37.3866 48.2117,36.7316 47.1627,35.9556 C46.1067,35.2056 44.6377,34.3306 42.5887,33.7556 C41.4657,33.4366 40.1127,33.1976 38.6297,33.2036 C37.1467,33.1966 35.5427,33.4846 33.9967,34.0326 C30.8897,35.1256 27.9987,37.0906 25.1057,38.2496 C23.6707,38.8286 22.2097,39.1706 20.8607,39.2786 C19.5097,39.3806 18.2697,39.2576 17.2737,38.9516 C15.2537,38.3536 14.3167,37.2406 14.2507,37.3456 C14.2307,37.3656 14.4417,37.6456 14.9077,38.0616 C15.3707,38.4816 16.1387,38.9826 17.1727,39.3616" id="Fill-5" fill="#605A5A"></path>
            <path d="M25.2254,31.6712 C27.2444,31.0092 29.1894,30.4182 31.0054,30.0382 C32.8194,29.6612 34.5064,29.4782 35.9334,29.5132 C38.6184,29.5632 40.6514,30.1952 42.1024,30.8552 C43.5604,31.5222 44.4754,32.2082 45.0784,32.7132 C45.3794,32.9702 45.6144,33.1712 45.7984,33.3272 C45.9754,33.4932 46.1074,33.6082 46.2114,33.6842 C46.4174,33.8352 46.5024,33.8302 46.5584,33.7832 C46.6154,33.7362 46.6274,33.6372 46.4944,33.3722 C46.3644,33.1052 46.0864,32.6682 45.4744,32.0402 C44.8664,31.4132 43.8974,30.6022 42.3504,29.8472 C40.8084,29.1092 38.6664,28.4372 35.8984,28.3962 C34.3744,28.3642 32.6204,28.5692 30.7484,28.9762 C28.8794,29.3862 26.9064,30.0132 24.8884,30.7052 C22.8694,31.3942 20.7984,32.1402 18.6864,32.7002 C16.5784,33.2632 14.4244,33.6402 12.3384,33.6372 C10.2514,33.6472 8.2594,33.2462 6.5614,32.4932 C4.8624,31.7452 3.4674,30.7142 2.4754,29.6702 C1.4794,28.6242 0.8754,27.5902 0.5314,26.8502 C0.3454,26.4842 0.2414,26.1822 0.1594,25.9802 C0.0764,25.7782 0.0244,25.6732 0.0064,25.6782 C-0.0106,25.6822 0.0064,25.7962 0.0564,26.0102 C0.1054,26.2252 0.1794,26.5442 0.3374,26.9342 C0.6284,27.7192 1.1954,28.8272 2.1894,29.9612 C3.1764,31.0932 4.5984,32.2202 6.3534,33.0552 C8.1054,33.8982 10.2044,34.3752 12.3704,34.4122 C14.5414,34.4662 16.7734,34.1192 18.9344,33.5832 C21.1004,33.0502 23.2054,32.3292 25.2254,31.6712" id="Fill-7" fill="#605A5A"></path>
            <path d="M51.5775,46.9793 L52.2705,47.3193 L51.9515,46.4423 C51.8405,46.1373 51.6275,45.6523 51.0825,45.1213 C50.5475,44.5943 49.6725,44.0483 48.4565,43.7973 C47.8545,43.6733 47.1435,43.6123 46.3755,43.6623 C45.6005,43.7173 44.8115,43.8903 44.0105,44.1103 C42.4175,44.5503 40.7925,45.1823 39.2565,45.3083 C37.7225,45.4413 36.2875,45.0163 35.4395,44.4223 C34.5725,43.8363 34.2645,43.1933 34.1835,43.2443 C34.1355,43.2523 34.3235,44.0003 35.2145,44.7693 C36.0865,45.5383 37.6425,46.1273 39.3365,46.0833 C41.0365,46.0413 42.7395,45.4573 44.2905,45.0943 C45.0635,44.9103 45.8175,44.7733 46.4855,44.7443 C47.1595,44.7173 47.7775,44.7813 48.2895,44.8913 C49.3315,45.1163 50.0235,45.5303 50.4735,45.8933 C50.7665,46.1293 50.9605,46.3423 51.1145,46.5213 C51.1075,46.6463 51.1875,46.7883 51.5775,46.9793" id="Fill-9" fill="#605A5A"></path>
            <path d="M135.8094,10.4485 C134.9194,10.6135 133.6274,10.8165 132.0314,11.0155 C128.8404,11.4365 124.4234,11.7415 119.6384,12.4015 C114.8634,13.0565 109.6914,14.2855 105.3244,16.5545 C104.2344,17.1165 103.1924,17.7265 102.2314,18.4015 C101.2634,19.0605 100.3684,19.7765 99.5644,20.5155 C97.9554,21.9935 96.6954,23.5855 95.7764,25.0395 C94.0634,27.7805 93.3014,30.2005 92.9074,32.0565 C92.8314,32.5265 92.7424,32.9585 92.6894,33.3615 C92.6464,33.7655 92.6074,34.1365 92.5714,34.4775 C92.5554,35.1595 92.5024,35.7245 92.5334,36.1835 C92.5314,37.1085 92.5984,37.6215 92.5724,37.9205 C92.5564,38.2175 92.4984,38.2905 92.4274,38.3085 C92.3554,38.3265 92.2724,38.2665 92.1564,37.9605 C92.0414,37.6545 91.8664,37.1045 91.7654,36.1135 C91.6764,35.1305 91.5994,33.6905 91.9724,31.7125 C92.3514,29.7495 93.1434,27.2245 94.9054,24.4255 C95.8764,22.8965 97.2084,21.2305 98.9124,19.6905 C99.7624,18.9205 100.6984,18.1865 101.7114,17.5105 C102.7164,16.8195 103.8014,16.1995 104.9314,15.6335 C109.4634,13.3465 114.7464,12.1875 119.5684,11.6245 C124.4024,11.0595 128.8124,10.8735 132.0034,10.5845 C133.5994,10.4505 134.8924,10.3175 135.7874,10.2245 C136.6814,10.1275 137.1804,10.0835 137.1844,10.1235 C137.1894,10.1605 136.6994,10.2795 135.8094,10.4485" id="Fill-11" fill="#AAAAAA"></path>
            <path d="M95.0682,37.0872 C95.0032,37.0532 94.9562,36.9872 94.9722,36.8122 C94.9892,36.6382 95.0582,36.3452 95.3022,35.9062 C95.5482,35.4772 95.9582,34.8722 96.7212,34.2522 C97.4792,33.6352 98.5812,33.0022 100.0852,32.6032 C100.9112,32.3862 101.8972,32.2322 102.9792,32.2072 C104.0562,32.1792 105.2072,32.2782 106.3852,32.4122 C108.7332,32.6832 111.2312,33.1082 113.4782,32.7942 C114.5992,32.6452 115.6462,32.2922 116.5442,31.8542 C117.4362,31.4012 118.1662,30.8382 118.6932,30.2762 C119.7572,29.1382 120.0002,28.1122 120.0962,28.1552 C120.1262,28.1642 120.0902,28.4192 119.9502,28.8632 C119.7982,29.3012 119.5052,29.9212 118.9852,30.5692 C118.4672,31.2162 117.7182,31.8732 116.7902,32.4092 C115.8572,32.9292 114.7572,33.3572 113.5672,33.5682 C111.1692,34.0022 108.5892,33.6342 106.2672,33.4292 C105.1032,33.3252 103.9892,33.2552 102.9822,33.2992 C101.9812,33.3392 101.0732,33.4932 100.3212,33.6942 C98.9122,34.0772 97.9252,34.6372 97.2342,35.1392 C96.5442,35.6502 96.1492,36.1122 95.8732,36.4322 C95.5902,36.7512 95.4482,36.9502 95.3252,37.0372 C95.2072,37.1272 95.1332,37.1212 95.0682,37.0872" id="Fill-13" fill="#AAAAAA"></path>
            <path d="M127.1028,26.1638 C126.1858,26.7758 124.9618,27.2608 123.5698,27.5378 C122.1778,27.8088 120.6148,27.8648 119.0108,27.6688 C115.8108,27.2778 112.5158,26.1078 109.3928,25.8368 C107.8328,25.6948 106.3408,25.8008 105.0048,26.1378 C103.6678,26.4628 102.4988,26.9768 101.5518,27.5068 C99.7738,28.5008 98.6018,29.6098 97.7638,30.4938 C96.9398,31.3978 96.4258,32.0918 96.0838,32.5848 C95.4018,33.5748 95.2488,33.6698 95.1108,33.5948 C95.0458,33.5598 95.0048,33.4808 95.0458,33.2578 C95.0948,33.0398 95.1868,32.6558 95.4978,32.0788 C95.7828,31.4858 96.2838,30.6948 97.1278,29.7008 C97.9848,28.7288 99.2148,27.5408 101.0788,26.5128 C102.0988,25.9468 103.3618,25.4048 104.8068,25.0718 C106.2488,24.7258 107.8758,24.6388 109.5058,24.8198 C112.7808,25.1738 116.0438,26.4258 119.1248,26.8938 C120.6558,27.1298 122.1548,27.1288 123.4938,26.9248 C124.8318,26.7158 126.0108,26.3138 126.9108,25.7878 C128.7408,24.7438 129.3988,23.4468 129.4878,23.5338 C129.5108,23.5488 129.3698,23.8698 129.0108,24.3808 C128.6558,24.8958 128.0228,25.5588 127.1028,26.1638" id="Fill-15" fill="#AAAAAA"></path>
            <path d="M117.5062,20.5169 C115.3892,20.3339 113.3602,20.2029 111.5062,20.2469 C109.6542,20.2949 107.9702,20.5019 106.5892,20.8619 C103.9862,21.5239 102.1512,22.6039 100.8892,23.5779 C99.6212,24.5609 98.8882,25.4379 98.4172,26.0669 C98.1822,26.3859 97.9982,26.6349 97.8552,26.8299 C97.7212,27.0319 97.6192,27.1739 97.5352,27.2709 C97.3682,27.4659 97.2842,27.4799 97.2192,27.4469 C97.1542,27.4139 97.1192,27.3209 97.1882,27.0329 C97.2542,26.7429 97.4242,26.2539 97.8772,25.5019 C98.3252,24.7529 99.0842,23.7429 100.4172,22.6529 C101.7502,21.5829 103.6812,20.4399 106.3672,19.7669 C107.8432,19.3879 109.5982,19.1859 111.5122,19.1549 C113.4272,19.1269 115.4912,19.2869 117.6132,19.4989 C119.7372,19.7089 121.9232,19.9619 124.1072,20.0239 C126.2882,20.0909 128.4712,19.9659 130.5012,19.4869 C132.5352,19.0189 134.3832,18.1739 135.8642,17.0529 C137.3472,15.9359 138.4702,14.6149 139.1962,13.3709 C139.9282,12.1249 140.2792,10.9809 140.4452,10.1819 C140.5432,9.7829 140.5752,9.4649 140.6092,9.2489 C140.6432,9.0339 140.6702,8.9199 140.6882,8.9199 C140.7062,8.9209 140.7152,9.0359 140.7162,9.2559 C140.7172,9.4759 140.7182,9.8029 140.6532,10.2189 C140.5492,11.0489 140.2512,12.2579 139.5422,13.5889 C138.8392,14.9169 137.7132,16.3389 136.1952,17.5529 C134.6812,18.7729 132.7472,19.7169 130.6472,20.2489 C128.5462,20.7969 126.2942,20.9689 124.0672,20.9409 C121.8362,20.9169 119.6232,20.6959 117.5062,20.5169" id="Fill-17" fill="#AAAAAA"></path>
            <path d="M95.3484,41.4407 L94.7514,41.9297 L94.8614,41.0037 C94.8994,40.6817 94.9964,40.1597 95.4054,39.5197 C95.8064,38.8827 96.5334,38.1527 97.6604,37.6297 C98.2174,37.3717 98.8954,37.1497 99.6554,37.0237 C100.4214,36.8997 101.2294,36.8877 102.0594,36.9197 C103.7114,36.9827 105.4374,37.2277 106.9614,36.9997 C108.4864,36.7777 109.7854,36.0367 110.4754,35.2647 C111.1864,34.4957 111.3394,33.7987 111.4284,33.8307 C111.4774,33.8277 111.4664,34.5987 110.7744,35.5507 C110.1004,36.4987 108.7204,37.4277 107.0604,37.7707 C105.3954,38.1187 103.6044,37.9397 102.0124,37.9407 C101.2174,37.9377 100.4524,37.9777 99.7954,38.1017 C99.1324,38.2297 98.5454,38.4327 98.0724,38.6567 C97.1084,39.1137 96.5304,39.6747 96.1754,40.1307 C95.9434,40.4277 95.8034,40.6797 95.6954,40.8887 C95.7294,41.0087 95.6834,41.1657 95.3484,41.4407" id="Fill-19" fill="#AAAAAA"></path>
            <g id="Group-23" transform="translate(49.000000, 11.508300)">
                <mask id="mask-2" fill="white">
                    <use xlink:href="#path-1"></use>
                </mask>
                <g id="Clip-22"></g>
                <path d="M46.1072,50.8298 L42.7422,26.0068 L39.5622,1.5688 L40.4892,2.3028 L1.8942,6.9348 L2.7712,5.8278 L5.5272,30.5178 L6.9052,42.8628 L8.1872,55.2198 L7.4132,54.6058 C13.8582,53.9518 20.2992,53.2478 26.7502,52.6348 L46.1072,50.8298 Z M46.1072,50.8298 L26.8502,53.4948 C20.4292,54.3708 13.9992,55.1578 7.5732,55.9948 C7.1962,56.0428 6.8502,55.7768 6.8012,55.3998 L6.8012,55.3978 L6.7982,55.3798 L5.2232,43.0578 L3.7442,30.7248 L0.7872,6.0578 C0.7212,5.5118 1.1102,5.0168 1.6562,4.9508 L1.6642,4.9498 L40.2962,0.6418 L40.3122,0.6398 C40.7642,0.5888 41.1722,0.9148 41.2232,1.3678 L41.2242,1.3758 L43.7572,26.2958 L46.1072,50.8298 Z" id="Fill-21" fill="#605A5A" mask="url(#mask-2)"></path>
            </g>
            <path d="M93.0818,45.9275 C89.8878,46.5045 86.6808,46.9735 83.4718,47.4255 C80.2648,47.8885 77.0488,48.2735 73.8318,48.6585 C70.6128,49.0205 67.3938,49.3795 64.1648,49.6615 L59.3228,50.0825 C57.7038,50.1855 56.0898,50.3235 54.4678,50.3975 C56.0628,50.0985 57.6668,49.8645 59.2658,49.5955 L64.0768,48.8985 C67.2848,48.4355 70.5008,48.0495 73.7168,47.6665 C76.9358,47.3055 80.1558,46.9465 83.3838,46.6645 C86.6108,46.3715 89.8398,46.0945 93.0818,45.9275" id="Fill-24" fill="#605A5A"></path>
            <path d="M91.0652,28.5105 C87.8712,29.0885 84.6642,29.5565 81.4562,30.0085 C78.2482,30.4715 75.0322,30.8575 71.8152,31.2425 C68.5962,31.6035 65.3772,31.9635 62.1492,32.2455 L57.3062,32.6655 C55.6882,32.7695 54.0732,32.9075 52.4512,32.9805 C54.0472,32.6815 55.6502,32.4475 57.2502,32.1785 L62.0602,31.4815 C65.2682,31.0185 68.4842,30.6335 71.7012,30.2495 C74.9202,29.8895 78.1392,29.5295 81.3682,29.2475 C84.5952,28.9545 87.8242,28.6785 91.0652,28.5105" id="Fill-26" fill="#605A5A"></path>
            <path d="M61.4466,41.2356 C63.4056,40.6116 65.3996,40.2926 67.4016,40.0436 C69.4066,39.8256 71.4216,39.6816 73.4706,39.8436 C71.5126,40.4696 69.5186,40.7896 67.5166,41.0356 C65.5106,41.2516 63.4966,41.3956 61.4466,41.2356" id="Fill-28" fill="#605A5A"></path>
            <path d="M63.2117,56.4832 C65.1707,55.8592 67.1647,55.5392 69.1667,55.2912 C71.1717,55.0732 73.1867,54.9292 75.2357,55.0912 C73.2777,55.7172 71.2837,56.0372 69.2817,56.2832 C67.2757,56.4992 65.2617,56.6432 63.2117,56.4832" id="Fill-30" fill="#605A5A"></path>
            <path d="M80.6609,39.0115 C81.2659,38.5445 81.9069,38.3815 82.5559,38.2885 C83.2079,38.2285 83.8689,38.2405 84.5659,38.5595 C83.9599,39.0285 83.3199,39.1915 82.6709,39.2815 C82.0179,39.3405 81.3569,39.3275 80.6609,39.0115" id="Fill-32" fill="#605A5A"></path>
            <path d="M59.4495,23.9841 C61.4085,23.3601 63.4025,23.0411 65.4045,22.7921 C67.4095,22.5741 69.4245,22.4301 71.4735,22.5921 C69.5155,23.2181 67.5215,23.5381 65.5195,23.7851 C63.5135,24.0001 61.4985,24.1441 59.4495,23.9841" id="Fill-34" fill="#605A5A"></path>
            <path d="M78.6639,21.76 C79.2689,21.293 79.9099,21.13 80.5589,21.037 C81.2109,20.977 81.8719,20.989 82.5689,21.308 C81.9629,21.777 81.3229,21.941 80.6739,22.031 C80.0209,22.089 79.3599,22.076 78.6639,21.76" id="Fill-36" fill="#605A5A"></path>
            <path d="M82.4261,54.2586 C83.0311,53.7916 83.6721,53.6286 84.3211,53.5366 C84.9731,53.4756 85.6341,53.4876 86.3311,53.8066 C85.7251,54.2756 85.0851,54.4396 84.4361,54.5296 C83.7831,54.5876 83.1221,54.5746 82.4261,54.2586" id="Fill-38" fill="#605A5A"></path>
            <g id="Group-42" transform="translate(49.000000, 0.508300)">
                <mask id="mask-4" fill="white">
                    <use xlink:href="#path-3"></use>
                </mask>
                <g id="Clip-41"></g>
                <path d="M37.1072,2.3728 C37.0332,1.9678 36.6422,1.7468 36.3012,1.5848 C35.9442,1.4238 35.5662,1.3148 35.1862,1.2228 C34.4212,1.0488 33.6422,0.9478 32.8612,0.8748 C31.2982,0.7398 29.7262,0.7558 28.1602,0.7968 C25.0262,0.9278 21.9102,1.3018 18.8192,1.7748 C15.7292,2.2578 12.6642,2.8838 9.6612,3.6618 C8.1592,4.0388 6.6732,4.4778 5.2422,4.9818 C4.5292,5.2338 3.8292,5.5128 3.1942,5.8358 C2.8832,5.9988 2.5862,6.1768 2.3662,6.3538 C2.2512,6.4398 2.1712,6.5298 2.1382,6.5758 C2.1072,6.6228 2.1612,6.5858 2.1442,6.4208 C2.1192,6.2568 2.0612,6.2338 2.1022,6.2718 C2.1452,6.3098 2.2432,6.3788 2.3742,6.4368 C2.6292,6.5588 2.9602,6.6648 3.3002,6.7518 C3.9912,6.9218 4.7372,7.0328 5.4892,7.1148 C6.9972,7.2848 8.5442,7.3688 10.0922,7.3938 C13.1942,7.4698 16.3212,7.3738 19.4402,7.1388 C22.5572,6.8908 25.6772,6.5438 28.7572,5.9528 C30.2912,5.6348 31.8252,5.2908 33.3162,4.8018 C34.0592,4.5528 34.7942,4.2758 35.4992,3.9318 C35.8492,3.7558 36.1922,3.5628 36.5032,3.3248 C36.7972,3.0898 37.1272,2.7848 37.1072,2.3728 M37.1072,2.3728 C37.1342,2.7848 36.8072,3.0988 36.5142,3.3388 C36.2062,3.5838 35.8642,3.7828 35.5162,3.9658 C34.8152,4.3218 34.0822,4.6118 33.3402,4.8738 C31.8572,5.3968 30.3462,5.8408 28.8182,6.2238 C25.7702,7.0138 22.6752,7.6418 19.5542,8.1268 C16.4332,8.6028 13.2872,8.9778 10.1062,9.1098 C8.5152,9.1518 6.9172,9.1648 5.2982,9.0278 C4.4882,8.9518 3.6752,8.8478 2.8372,8.6568 C2.4162,8.5538 1.9902,8.4358 1.5322,8.2278 C1.3052,8.1248 1.0622,7.9938 0.8042,7.7788 C0.5562,7.5608 0.2352,7.2128 0.1592,6.6498 C0.1012,6.0848 0.3362,5.6728 0.5272,5.4038 C0.7292,5.1348 0.9372,4.9518 1.1342,4.7998 C1.5332,4.4928 1.9202,4.2798 2.3072,4.0838 C3.0792,3.7068 3.8472,3.4188 4.6182,3.1598 C6.1612,2.6498 7.7212,2.3038 9.2802,1.9788 C12.4062,1.3758 15.5562,1.0278 18.7042,0.7768 C21.8532,0.5378 25.0092,0.4418 28.1582,0.5168 C29.7322,0.5408 31.3052,0.6268 32.8692,0.7988 C33.6502,0.8848 34.4302,0.9988 35.1942,1.1858 C35.5752,1.2848 35.9532,1.3998 36.3102,1.5678 C36.6492,1.7348 37.0392,1.9658 37.1072,2.3728" id="Fill-40" fill="#FFAA00" mask="url(#mask-4)"></path>
            </g>
            <path d="M134.7791,53.8489 C135.1491,56.4939 137.6641,58.0839 141.2151,58.0839 C144.5991,58.0839 147.0221,56.3459 147.0221,53.9599 C147.0221,51.8889 145.6161,50.5939 142.0471,49.8169 L139.1441,49.2069 C133.7991,48.0779 131.3761,45.5999 131.3761,41.7539 C131.3761,37.1859 135.3891,34.0419 141.0671,34.0419 C146.7261,34.0419 150.5911,37.2419 150.7211,41.9019 L146.7081,41.9019 C146.4481,39.2199 144.2481,37.5749 141.0111,37.5749 C137.8861,37.5749 135.5931,39.0909 135.5931,41.5319 C135.5931,43.4739 136.9611,44.7679 140.4201,45.5079 L143.3421,46.1189 C148.9271,47.3019 151.2201,49.5399 151.2201,53.4229 C151.2201,58.4529 147.2621,61.6159 141.0491,61.6159 C135.0201,61.6159 131.0071,58.6009 130.7471,53.8489 L134.7791,53.8489 Z" id="Fill-43" fill="#FFAA00"></path>
            <polygon id="Fill-45" fill="#FFAA00" points="171.8782 61.1721 154.9382 61.1721 154.9382 34.4851 171.8782 34.4851 171.8782 38.0551 159.0802 38.0551 159.0802 45.8591 171.1932 45.8591 171.1932 49.2991 159.0802 49.2991 159.0802 57.5841 171.8782 57.5841"></polygon>
            <path d="M180.2747,47.5608 L186.0817,47.5608 C189.2817,47.5608 191.1117,45.8038 191.1117,42.7518 C191.1117,39.7748 189.1707,37.9628 185.9707,37.9628 L180.2747,37.9628 L180.2747,47.5608 Z M180.2747,61.1718 L176.1317,61.1718 L176.1317,34.4858 L186.4697,34.4858 C191.9627,34.4858 195.3837,37.6668 195.3837,42.6418 C195.3837,46.2478 193.4607,49.1698 190.2057,50.2608 L196.1797,61.1718 L191.4077,61.1718 L185.9707,50.9078 L180.2747,50.9078 L180.2747,61.1718 Z" id="Fill-47" fill="#FFAA00"></path>
            <polygon id="Fill-49" fill="#FFAA00" points="206.8318 61.1721 197.3078 34.4851 201.8018 34.4851 209.0698 56.5121 209.1818 56.5121 216.4678 34.4851 220.8878 34.4851 211.3628 61.1721"></polygon>
            <polygon id="Fill-51" fill="#FFAA00" points="240.7684 61.1721 223.8294 61.1721 223.8294 34.4851 240.7684 34.4851 240.7684 38.0551 227.9714 38.0551 227.9714 45.8591 240.0844 45.8591 240.0844 49.2991 227.9714 49.2991 227.9714 57.5841 240.7684 57.5841"></polygon>
            <path d="M249.1658,47.5608 L254.9728,47.5608 C258.1718,47.5608 260.0028,45.8038 260.0028,42.7518 C260.0028,39.7748 258.0618,37.9628 254.8608,37.9628 L249.1658,37.9628 L249.1658,47.5608 Z M249.1658,61.1718 L245.0228,61.1718 L245.0228,34.4858 L255.3608,34.4858 C260.8538,34.4858 264.2748,37.6668 264.2748,42.6418 C264.2748,46.2478 262.3518,49.1698 259.0968,50.2608 L265.0698,61.1718 L260.2988,61.1718 L254.8608,50.9078 L249.1658,50.9078 L249.1658,61.1718 Z" id="Fill-53" fill="#FFAA00"></path>
            <polygon id="Fill-55" fill="#AAAAAA" points="283.3611 61.1721 268.1031 61.1721 268.1031 34.4851 269.0281 34.4851 269.0281 60.3031 283.3611 60.3031"></polygon>
            <polygon id="Fill-57" fill="#AAAAAA" points="302.0408 61.1721 286.7648 61.1721 286.7648 34.4851 302.0408 34.4851 302.0408 35.3551 287.6888 35.3551 287.6888 47.0431 301.3748 47.0431 301.3748 47.8941 287.6888 47.8941 287.6888 60.3031 302.0408 60.3031"></polygon>
            <path d="M304.575,54.1262 C304.778,57.9732 308.366,60.6912 313.248,60.6912 C318.056,60.6912 321.367,58.1022 321.367,54.2742 C321.367,51.2042 319.333,49.5762 314.413,48.4112 L311.621,47.7462 C306.424,46.5062 304.371,44.5272 304.371,41.0692 C304.371,36.9642 308.255,34.1162 312.915,34.1162 C317.853,34.1162 321.607,37.0192 321.774,40.7922 L320.849,40.7922 C320.664,37.4812 317.317,34.9662 312.897,34.9662 C308.736,34.9662 305.296,37.3892 305.296,41.0692 C305.296,44.1212 307.386,45.8222 311.972,46.9132 L314.746,47.5792 C320.109,48.8552 322.292,50.6862 322.292,54.2372 C322.292,58.5642 318.63,61.5422 313.229,61.5422 C307.793,61.5422 303.853,58.4532 303.65,54.1262 L304.575,54.1262 Z" id="Fill-59" fill="#AAAAAA"></path>
            <path d="M325.1766,54.1262 C325.3796,57.9732 328.9676,60.6912 333.8496,60.6912 C338.6576,60.6912 341.9686,58.1022 341.9686,54.2742 C341.9686,51.2042 339.9346,49.5762 335.0146,48.4112 L332.2226,47.7462 C327.0256,46.5062 324.9726,44.5272 324.9726,41.0692 C324.9726,36.9642 328.8566,34.1162 333.5166,34.1162 C338.4546,34.1162 342.2086,37.0192 342.3756,40.7922 L341.4506,40.7922 C341.2656,37.4812 337.9186,34.9662 333.4986,34.9662 C329.3376,34.9662 325.8976,37.3892 325.8976,41.0692 C325.8976,44.1212 327.9876,45.8222 332.5736,46.9132 L335.3476,47.5792 C340.7106,48.8552 342.8936,50.6862 342.8936,54.2372 C342.8936,58.5642 339.2316,61.5422 333.8306,61.5422 C328.3946,61.5422 324.4546,58.4532 324.2516,54.1262 L325.1766,54.1262 Z" id="Fill-61" fill="#AAAAAA"></path>
            <polygon id="Fill-63" fill="#AAAAAA" points="377.5145 61.1721 377.5145 36.6121 377.4415 36.6121 366.6405 61.1721 365.6605 61.1721 354.8605 36.6121 354.7855 36.6121 354.7855 61.1721 353.8795 61.1721 353.8795 34.4851 354.8605 34.4851 366.1225 60.0071 366.1975 60.0071 377.4045 34.4851 378.4205 34.4851 378.4205 61.1721"></polygon>
            <polygon id="Fill-65" fill="#AAAAAA" points="383.0262 61.1721 383.0262 34.4851 384.0442 34.4851 401.7602 59.4151 401.8352 59.4151 401.8352 34.4851 402.7592 34.4851 402.7592 61.1721 401.9082 61.1721 384.0252 36.0391 383.9512 36.0391 383.9512 61.1721"></polygon>
        </g>
    </g>
</svg>